# xmcd
#
# Track frame offsets:
#	151
#	14554
#	26872
#	40358
#	59721
#	68934
#	80557
#	94375
#	104131
#	123929
#	134821
#
# Disc length: 2006 seconds
#
# Revision: 0
# Processed by: cddbd v1.5.2PL0 Copyright (c) Steve Scherf et al.
# Submitted via: EZCDAudioConverter 1.3.4.1
#
DISCID=af07d40b
DTITLE=Marcos Valle - Garra
DYEAR=1900
DGENRE=
TTITLE0=Jesus Meu Rei
TTITLE1=Com Mais De 30
TTITLE2=Garra
TTITLE3=Black Is Beautiful
TTITLE4=Ao Amigo Tom
TTITLE5=Paz E Futebol
TTITLE6=Que Bandeira
TTITLE7=Wanda Vidal
TTITLE8=Minha Voz Virá Do Sol Da América 
TTITLE9=Vinte E Seis Anos De Vida Normal
TTITLE10=O Cafona
EXTD=
EXTT0=
EXTT1=
EXTT2=
EXTT3=
EXTT4=
EXTT5=
EXTT6=
EXTT7=
EXTT8=
EXTT9=
EXTT10=
PLAYORDER=
